<?xml version="1.0" encoding="UTF-8" standalone="no"?>
<!-- Generator: Adobe Illustrator 19.0.0, SVG Export Plug-In . SVG Version: 6.00 Build 0)  -->

<svg
   xmlns:dc="http://purl.org/dc/elements/1.1/"
   xmlns:cc="http://creativecommons.org/ns#"
   xmlns:rdf="http://www.w3.org/1999/02/22-rdf-syntax-ns#"
   xmlns:svg="http://www.w3.org/2000/svg"
   xmlns="http://www.w3.org/2000/svg"
   xmlns:sodipodi="http://sodipodi.sourceforge.net/DTD/sodipodi-0.dtd"
   xmlns:inkscape="http://www.inkscape.org/namespaces/inkscape"
   version="1.1"
   id="Layer_1"
   x="0px"
   y="0px"
   viewBox="0 0 408.78501 408.788"
   xml:space="preserve"
   sodipodi:docname="facebook.svg"
   inkscape:version="0.92.3 (2405546, 2018-03-11)"
   width="408.785"
   height="408.78799"><metadata
   id="metadata98"><rdf:RDF><cc:Work
       rdf:about=""><dc:format>image/svg+xml</dc:format><dc:type
         rdf:resource="http://purl.org/dc/dcmitype/StillImage" /></cc:Work></rdf:RDF></metadata><defs
   id="defs96" /><sodipodi:namedview
   pagecolor="#ffffff"
   bordercolor="#666666"
   borderopacity="1"
   objecttolerance="10"
   gridtolerance="10"
   guidetolerance="10"
   inkscape:pageopacity="0"
   inkscape:pageshadow="2"
   inkscape:window-width="1920"
   inkscape:window-height="1018"
   id="namedview94"
   showgrid="false"
   inkscape:zoom="0.57731637"
   inkscape:cx="774.27018"
   inkscape:cy="118.32208"
   inkscape:window-x="-8"
   inkscape:window-y="-8"
   inkscape:window-maximized="1"
   inkscape:current-layer="Layer_1" />
<path
   style="fill:#475993"
   d="M 353.699,0 H 55.085 C 24.663,0 0,24.662 0,55.085 v 298.616 c 0,30.423 24.662,55.085 55.085,55.085 H 202.36 l 0.251,-146.078 H 164.66 c -4.932,0 -8.935,-3.988 -8.954,-8.92 l -0.182,-47.087 c -0.019,-4.959 3.996,-8.989 8.955,-8.989 h 37.882 v -45.498 c 0,-52.799998 32.247,-81.55 79.348,-81.55 h 38.65 c 4.945,0 8.955,4.009 8.955,8.955 v 39.704 c 0,4.944 -4.007,8.952 -8.95,8.955 l -23.719,0.011 c -25.615,0 -30.575,12.172 -30.575,30.035 v 39.389 h 56.285 c 5.363,0 9.524,4.683 8.892,10.009 l -5.581,47.087 c -0.534,4.506 -4.355,7.901 -8.892,7.901 h -50.453 l -0.251,146.078 h 87.631 c 30.422,0 55.084,-24.662 55.084,-55.084 V 55.085 C 408.784,24.662 384.122,0 353.699,0 Z"
   id="path61"
   inkscape:connector-curvature="0" />
<g
   id="g63"
   transform="translate(1124.165,129.91144)">
</g>
<g
   id="g65"
   transform="translate(1124.165,129.91144)">
</g>
<g
   id="g67"
   transform="translate(1124.165,129.91144)">
</g>
<g
   id="g69"
   transform="translate(1124.165,129.91144)">
</g>
<g
   id="g71"
   transform="translate(1124.165,129.91144)">
</g>
<g
   id="g73"
   transform="translate(1124.165,129.91144)">
</g>
<g
   id="g75"
   transform="translate(1124.165,129.91144)">
</g>
<g
   id="g77"
   transform="translate(1124.165,129.91144)">
</g>
<g
   id="g79"
   transform="translate(1124.165,129.91144)">
</g>
<g
   id="g81"
   transform="translate(1124.165,129.91144)">
</g>
<g
   id="g83"
   transform="translate(1124.165,129.91144)">
</g>
<g
   id="g85"
   transform="translate(1124.165,129.91144)">
</g>
<g
   id="g87"
   transform="translate(1124.165,129.91144)">
</g>
<g
   id="g89"
   transform="translate(1124.165,129.91144)">
</g>
<g
   id="g91"
   transform="translate(1124.165,129.91144)">
</g>
</svg>